<?xml version="1.0" encoding="utf-8"?>
<!-- Generator: Adobe Illustrator 16.0.0, SVG Export Plug-In . SVG Version: 6.00 Build 0)  -->
<!DOCTYPE svg PUBLIC "-//W3C//DTD SVG 1.1//EN" "http://www.w3.org/Graphics/SVG/1.1/DTD/svg11.dtd">
<svg version="1.1" id="Capa_1" xmlns="http://www.w3.org/2000/svg" xmlns:xlink="http://www.w3.org/1999/xlink" x="0px" y="0px"
	 width="23px" height="6px" viewBox="0 0 23 6" enable-background="new 0 0 23 6" xml:space="preserve">
<g>
	<path fill="#FFFFFF" d="M22.908,2.7l-2.48-2.571c-0.145-0.16-0.391-0.173-0.551-0.028c-0.01,0.009-0.02,0.018-0.027,0.028
		c-0.166,0.165-0.166,0.434,0,0.6l1.777,1.843H0.413C0.165,2.57,0,2.74,0,3.001c0,0.257,0.165,0.428,0.413,0.428h21.213
		l-1.778,1.844c-0.166,0.166-0.166,0.435,0,0.6c0.076,0.078,0.18,0.123,0.289,0.129c0.109-0.006,0.213-0.052,0.289-0.13l2.48-2.571
		C23.03,3.119,23.031,2.881,22.908,2.7L22.908,2.7z"/>
</g>
</svg>
